<svg width="14" height="14" viewBox="0 0 14 14" fill="none" xmlns="http://www.w3.org/2000/svg">
<path d="M6.95664 1.47501C8.74414 1.47501 8.98789 1.47501 9.71914 1.47501C10.3691 1.47501 10.6941 1.63751 10.9379 1.71876C11.2629 1.88126 11.5066 1.96251 11.7504 2.20626C11.9941 2.45001 12.1566 2.69376 12.2379 3.01876C12.3191 3.26251 12.4004 3.58751 12.4816 4.23751C12.4816 4.96876 12.4816 5.13126 12.4816 7.00001C12.4816 8.86876 12.4816 9.03126 12.4816 9.76251C12.4816 10.4125 12.3191 10.7375 12.2379 10.9813C12.0754 11.3063 11.9941 11.55 11.7504 11.7938C11.5066 12.0375 11.2629 12.2 10.9379 12.2813C10.6941 12.3625 10.3691 12.4438 9.71914 12.525C8.98789 12.525 8.82539 12.525 6.95664 12.525C5.08789 12.525 4.92539 12.525 4.19414 12.525C3.54414 12.525 3.21914 12.3625 2.97539 12.2813C2.65039 12.1188 2.40664 12.0375 2.16289 11.7938C1.91914 11.55 1.75664 11.3063 1.67539 10.9813C1.59414 10.7375 1.51289 10.4125 1.43164 9.76251C1.43164 9.03126 1.43164 8.86876 1.43164 7.00001C1.43164 5.13126 1.43164 4.96876 1.43164 4.23751C1.43164 3.58751 1.59414 3.26251 1.67539 3.01876C1.83789 2.69376 1.91914 2.45001 2.16289 2.20626C2.40664 1.96251 2.65039 1.80001 2.97539 1.71876C3.21914 1.63751 3.54414 1.55626 4.19414 1.47501C4.92539 1.47501 5.16914 1.47501 6.95664 1.47501ZM6.95664 0.256256C5.08789 0.256256 4.92539 0.256256 4.19414 0.256256C3.46289 0.256256 2.97539 0.418757 2.56914 0.581257C2.16289 0.743757 1.75664 0.987507 1.35039 1.39376C0.944141 1.80001 0.781641 2.12501 0.537891 2.61251C0.375391 3.01876 0.294141 3.50626 0.212891 4.23751C0.212891 4.96876 0.212891 5.21251 0.212891 7.00001C0.212891 8.86876 0.212891 9.03126 0.212891 9.76251C0.212891 10.4938 0.375391 10.9813 0.537891 11.3875C0.700391 11.7938 0.944141 12.2 1.35039 12.6063C1.75664 13.0125 2.08164 13.175 2.56914 13.4188C2.97539 13.5813 3.46289 13.6625 4.19414 13.7438C4.92539 13.7438 5.16914 13.7438 6.95664 13.7438C8.74414 13.7438 8.98789 13.7438 9.71914 13.7438C10.4504 13.7438 10.9379 13.5813 11.3441 13.4188C11.7504 13.2563 12.1566 13.0125 12.5629 12.6063C12.9691 12.2 13.1316 11.875 13.3754 11.3875C13.5379 10.9813 13.6191 10.4938 13.7004 9.76251C13.7004 9.03126 13.7004 8.78751 13.7004 7.00001C13.7004 5.21251 13.7004 4.96876 13.7004 4.23751C13.7004 3.50626 13.5379 3.01876 13.3754 2.61251C13.2129 2.20626 12.9691 1.80001 12.5629 1.39376C12.1566 0.987507 11.8316 0.825007 11.3441 0.581257C10.9379 0.418757 10.4504 0.337506 9.71914 0.256256C8.98789 0.256256 8.82539 0.256256 6.95664 0.256256Z" fill="#F3FFEC"/>
<path d="M6.95664 3.50626C5.00664 3.50626 3.46289 5.05001 3.46289 7.00001C3.46289 8.95001 5.00664 10.4938 6.95664 10.4938C8.90664 10.4938 10.4504 8.95001 10.4504 7.00001C10.4504 5.05001 8.90664 3.50626 6.95664 3.50626ZM6.95664 9.27501C5.73789 9.27501 4.68164 8.30001 4.68164 7.00001C4.68164 5.78126 5.65664 4.72501 6.95664 4.72501C8.17539 4.72501 9.23164 5.70001 9.23164 7.00001C9.23164 8.21876 8.17539 9.27501 6.95664 9.27501Z" fill="#F3FFEC"/>
<path d="M10.5316 4.23751C10.9804 4.23751 11.3441 3.87374 11.3441 3.42501C11.3441 2.97628 10.9804 2.61251 10.5316 2.61251C10.0829 2.61251 9.71914 2.97628 9.71914 3.42501C9.71914 3.87374 10.0829 4.23751 10.5316 4.23751Z" fill="#F3FFEC"/>
</svg>
