<svg width="32" height="32" viewBox="0 0 32 32" fill="none" xmlns="http://www.w3.org/2000/svg">
<g opacity="0.64">
<path d="M15.9998 15.3334C15.1158 15.3334 14.2679 14.9822 13.6428 14.357C13.0177 13.7319 12.6665 12.8841 12.6665 12C12.6665 11.116 13.0177 10.2681 13.6428 9.643C14.2679 9.01788 15.1158 8.66669 15.9998 8.66669C16.8839 8.66669 17.7317 9.01788 18.3569 9.643C18.982 10.2681 19.3332 11.116 19.3332 12C19.3332 12.4378 19.247 12.8712 19.0794 13.2756C18.9119 13.68 18.6664 14.0475 18.3569 14.357C18.0473 14.6666 17.6799 14.9121 17.2754 15.0796C16.871 15.2471 16.4376 15.3334 15.9998 15.3334ZM15.9998 2.66669C13.5245 2.66669 11.1505 3.65002 9.40017 5.40036C7.64983 7.1507 6.6665 9.52467 6.6665 12C6.6665 19 15.9998 29.3334 15.9998 29.3334C15.9998 29.3334 25.3332 19 25.3332 12C25.3332 9.52467 24.3498 7.1507 22.5995 5.40036C20.8492 3.65002 18.4752 2.66669 15.9998 2.66669Z" fill="#323232"/>
</g>
</svg>
