<svg width="15" height="10" viewBox="0 0 15 10" fill="none" xmlns="http://www.w3.org/2000/svg">
<path d="M13.9219 1.83126C13.7523 1.26251 13.3284 0.856262 12.7349 0.693762C11.7176 0.450012 7.39362 0.450012 7.39362 0.450012C7.39362 0.450012 3.1545 0.450012 2.05233 0.693762C1.45885 0.856262 1.03493 1.26251 0.865363 1.83126C0.695798 2.88751 0.695801 5.00001 0.695801 5.00001C0.695801 5.00001 0.695803 7.11251 0.950151 8.16876C1.11972 8.73751 1.54362 9.14376 2.1371 9.30626C3.15449 9.55001 7.47841 9.55001 7.47841 9.55001C7.47841 9.55001 11.7175 9.55001 12.8197 9.30626C13.4132 9.14376 13.8371 8.73751 14.0067 8.16876C14.261 7.11251 14.261 5.00001 14.261 5.00001C14.261 5.00001 14.261 2.88751 13.9219 1.83126ZM6.12188 6.95001V3.05001L9.68276 5.00001L6.12188 6.95001Z" fill="#F3FFEC"/>
</svg>
